<svg width="100" height="100" viewBox="0 0 100 100" fill="none" xmlns="http://www.w3.org/2000/svg">
<mask id="mask0_1_4" style="mask-type:alpha" maskUnits="userSpaceOnUse" x="0" y="0" width="100" height="100">
<circle cx="50" cy="50" r="50" fill="#232323"/>
</mask>
<g mask="url(#mask0_1_4)">
<circle cx="50" cy="50" r="50" fill="#232323"/>
<path d="M50.0682 49.5455C50.0682 53.4318 49.3125 56.7102 47.8011 59.3807C46.2898 62.0398 44.25 64.0568 41.6818 65.4318C39.1136 66.7955 36.25 67.4773 33.0909 67.4773C29.9091 67.4773 27.0341 66.7898 24.4659 65.4148C21.9091 64.0284 19.875 62.0057 18.3636 59.3466C16.8636 56.6761 16.1136 53.4091 16.1136 49.5455C16.1136 45.6591 16.8636 42.3864 18.3636 39.7273C19.875 37.0568 21.9091 35.0398 24.4659 33.6761C27.0341 32.3011 29.9091 31.6136 33.0909 31.6136C36.25 31.6136 39.1136 32.3011 41.6818 33.6761C44.25 35.0398 46.2898 37.0568 47.8011 39.7273C49.3125 42.3864 50.0682 45.6591 50.0682 49.5455ZM40.3182 49.5455C40.3182 47.4545 40.0398 45.6932 39.483 44.2614C38.9375 42.8182 38.125 41.7273 37.0455 40.9886C35.9773 40.2386 34.6591 39.8636 33.0909 39.8636C31.5227 39.8636 30.1989 40.2386 29.1193 40.9886C28.0511 41.7273 27.2386 42.8182 26.6818 44.2614C26.1364 45.6932 25.8636 47.4545 25.8636 49.5455C25.8636 51.6364 26.1364 53.4034 26.6818 54.8466C27.2386 56.2784 28.0511 57.3693 29.1193 58.1193C30.1989 58.858 31.5227 59.2273 33.0909 59.2273C34.6591 59.2273 35.9773 58.858 37.0455 58.1193C38.125 57.3693 38.9375 56.2784 39.483 54.8466C40.0398 53.4034 40.3182 51.6364 40.3182 49.5455ZM73.2713 43C73.1804 41.8636 72.7543 40.9773 71.9929 40.3409C71.2429 39.7045 70.1009 39.3864 68.5668 39.3864C67.5895 39.3864 66.7884 39.5057 66.1634 39.7443C65.5497 39.9716 65.0952 40.2841 64.7997 40.6818C64.5043 41.0795 64.3509 41.5341 64.3395 42.0455C64.3168 42.4659 64.3906 42.8466 64.5611 43.1875C64.7429 43.517 65.027 43.8182 65.4134 44.0909C65.7997 44.3523 66.294 44.5909 66.8963 44.8068C67.4986 45.0227 68.2145 45.2159 69.044 45.3864L71.9077 46C73.8395 46.4091 75.4929 46.9489 76.8679 47.6193C78.2429 48.2898 79.3679 49.0795 80.2429 49.9886C81.1179 50.8864 81.7599 51.8977 82.169 53.0227C82.5895 54.1477 82.8054 55.375 82.8168 56.7045C82.8054 59 82.2315 60.9432 81.0952 62.5341C79.9588 64.125 78.3338 65.3352 76.2202 66.1648C74.1179 66.9943 71.5895 67.4091 68.6349 67.4091C65.6009 67.4091 62.9531 66.9602 60.6918 66.0625C58.4418 65.1648 56.6918 63.7841 55.4418 61.9205C54.2031 60.0455 53.5781 57.6477 53.5668 54.7273H62.5668C62.6236 55.7955 62.8906 56.6932 63.3679 57.4205C63.8452 58.1477 64.5156 58.6989 65.3793 59.0739C66.2543 59.4489 67.294 59.6364 68.4986 59.6364C69.5099 59.6364 70.3565 59.5114 71.0384 59.2614C71.7202 59.0114 72.2372 58.6648 72.5895 58.2216C72.9418 57.7784 73.1236 57.2727 73.1349 56.7045C73.1236 56.1705 72.9474 55.7045 72.6065 55.3068C72.277 54.8977 71.7315 54.5341 70.9702 54.2159C70.2088 53.8864 69.1804 53.5795 67.8849 53.2955L64.4077 52.5455C61.3168 51.875 58.8793 50.7557 57.0952 49.1875C55.3224 47.608 54.4418 45.4545 54.4531 42.7273C54.4418 40.5114 55.0327 38.5739 56.2259 36.9148C57.4304 35.2443 59.0952 33.9432 61.2202 33.0114C63.3565 32.0795 65.8054 31.6136 68.5668 31.6136C71.3849 31.6136 73.8224 32.0852 75.8793 33.0284C77.9361 33.9716 79.5213 35.3011 80.6349 37.017C81.7599 38.7216 82.3281 40.7159 82.3395 43H73.2713Z" fill="white"/>
<line x1="103.464" y1="107.536" x2="1.46446" y2="5.53554" stroke="#232323" stroke-width="10"/>
<line x1="108.172" y1="102.828" x2="6.17156" y2="0.828436" stroke="#232323" stroke-width="8"/>
<line x1="105.232" y1="105.768" x2="3.23222" y2="3.76778" stroke="white" stroke-width="5"/>
</g>
</svg>
