<svg width="100" height="100" viewBox="0 0 100 100" fill="none" xmlns="http://www.w3.org/2000/svg">
<mask id="path-1-inside-1_1_21" fill="white">
<path fill-rule="evenodd" clip-rule="evenodd" d="M41 19H81V59H74V74H81C89.2843 74 96 67.2843 96 59V19C96 10.7157 89.2843 4 81 4H41C32.7157 4 26 10.7157 26 19V26H41V19Z"/>
</mask>
<path fill-rule="evenodd" clip-rule="evenodd" d="M41 19H81V59H74V74H81C89.2843 74 96 67.2843 96 59V19C96 10.7157 89.2843 4 81 4H41C32.7157 4 26 10.7157 26 19V26H41V19Z" fill="black"/>
<path d="M81 19H96V4H81V19ZM41 19V4H26V19H41ZM81 59V74H96V59H81ZM74 59V44H59V59H74ZM74 74H59V89H74V74ZM26 26H11V41H26V26ZM41 26V41H56V26H41ZM81 4H41V34H81V4ZM96 59V19H66V59H96ZM74 74H81V44H74V74ZM59 59V74H89V59H59ZM74 89H81V59H74V89ZM81 89C97.5685 89 111 75.5685 111 59H81V89ZM111 59V19H81V59H111ZM111 19C111 2.43146 97.5685 -11 81 -11V19H111ZM81 -11H41V19H81V-11ZM41 -11C24.4315 -11 11 2.43146 11 19H41V19V-11ZM11 19V26H41V19H11ZM26 41H41V11H26V41ZM26 19V26H56V19H26Z" fill="white" mask="url(#path-1-inside-1_1_21)"/>
<rect x="11.5" y="33.5" width="55" height="55" rx="7.5" stroke="white" stroke-width="15"/>
</svg>
